<svg id="Layer_1" data-name="Layer 1" xmlns="http://www.w3.org/2000/svg" viewBox="0 0 3013.9014 1053.56637">
  <defs>
    <style>
      .cls-1 {
        fill: #f3bb1a;
      }

      .cls-2 {
        fill: #fff;
      }
    </style>
  </defs>
  <title>CARWAVE-logo</title>
  <g>
    <g>
      <path class="cls-1" d="M591.09748,658.89612H484.68487c18.24891-146.14983,102.14859-268.09884,120.39776-414.24869H711.49524C693.24625,390.79737,609.3463,512.74625,591.09748,658.89612Z"/>
      <path class="cls-2" d="M535.28788,352.96032c14.33352-42.56509,20.04289-63.84791,20.38144-106.41278-39.14461,0-58.717,0-97.86161,0H351.39553C332.51616,391.19115,249.942,512.26261,231.01334,656.89548h.412l-.00078.10021q101.93109.00006,203.86208.00009c.33864-42.5652,6.04783-63.84748,20.38119-106.41231-39.14461,0-58.717,0-97.86161,0,23.81866-67.0248,55.80177-130.59814,79.62-197.62315C476.57088,352.96032,496.14327,352.96032,535.28788,352.96032Z"/>
      <path class="cls-1" d="M747.86571,658.8961l-106.41243,0C659.7021,512.74621,743.60222,390.79741,761.851,244.64743H868.26382C850.01483,390.79745,766.11471,512.74616,747.86571,658.8961Z"/>
      <path class="cls-1" d="M899.88333,658.896l-106.41226,0c18.249-146.14992,102.14911-268.09863,120.39811-414.24865h106.41226C1002.03262,390.79741,918.1325,512.74621,899.88333,658.896Z"/>
    </g>
    <g>
      <path class="cls-2" d="M264.47871,778.842l-28.94678-40.94141H256.175l16.95312,27.10156,16.95264-27.10156h20.64356L281.77754,778.842v37.48047H264.47871Z"/>
      <path class="cls-2" d="M354.89424,817.47574c-21.68115,0-40.36377-18.68262-40.36377-40.36426s18.68262-40.36426,40.36377-40.36426,40.36426,18.68262,40.36426,40.36426S376.57539,817.47574,354.89424,817.47574Zm0-63.54493c-12.10938,0-23.06494,10.95606-23.06494,23.06543s10.95556,23.18067,23.06494,23.18067,23.06543-11.07129,23.06543-23.18067S367.00361,753.93081,354.89424,753.93081Z"/>
      <path class="cls-2" d="M477.94551,737.90054v47.86035c0,20.874-11.99414,31.71485-32.40674,31.71485S413.132,806.63492,413.132,785.76089V737.90054h17.29932v45.32324c0,10.84082,3.34424,16.95313,15.10742,16.95313,11.87842,0,15.10791-6.11231,15.10791-16.95313V737.90054Z"/>
      <path class="cls-2" d="M516.00166,816.32242H498.70283V737.90054H528.111c12.686,0,23.98779,10.26465,23.98779,25.1416,0,13.26172-7.95752,22.02735-17.87549,24.44922l22.48877,28.83106H534.8L516.11738,788.298h-.11572Zm0-64.81348V774.6896h9.22607c5.07471,0,10.3794-4.15136,10.3794-11.64746,0-7.15039-5.30469-11.5332-10.3794-11.5332Z"/>
      <path class="cls-2" d="M641.70576,816.32242H624.40693V753.58511h-22.373V737.90054H664.0793v15.68457H641.70576Z"/>
      <path class="cls-2" d="M697.52168,816.32242H680.22285V737.90054h29.4082c12.686,0,23.9878,10.26465,23.9878,25.1416,0,13.26172-7.95752,22.02735-17.87549,24.44922l22.48877,28.83106H716.32L697.6374,788.298h-.11572Zm0-64.81348V774.6896h9.22607c5.07471,0,10.3794-4.15136,10.3794-11.64746,0-7.15039-5.30469-11.5332-10.3794-11.5332Z"/>
      <path class="cls-2" d="M815.49922,737.90054v47.86035c0,20.874-11.99414,31.71485-32.40674,31.71485s-32.40674-10.84082-32.40674-31.71485V737.90054h17.29932v45.32324c0,10.84082,3.34424,16.95313,15.10742,16.95313,11.87842,0,15.10791-6.11231,15.10791-16.95313V737.90054Z"/>
      <path class="cls-2" d="M880.65693,794.87222c0-15.22363-45.32275-5.4209-45.32275-34.36719,0-16.14551,14.99219-23.75781,29.29248-23.75781,16.146,0,30.67676,7.15039,31.25342,25.02637H879.15791c-.92285-8.18848-5.65088-10.84082-14.30029-10.84082-4.84375,0-11.648,2.30664-11.648,8.18847,0,13.9541,45.32324,3.9209,45.32324,33.79,0,18.45215-16.4917,25.25684-32.522,25.25684-17.29932,0-33.09864-8.53418-33.21387-27.67871h17.5293c.46142,9.34179,7.84228,13.6084,16.37646,13.6084C872.12324,804.09781,880.65693,801.9064,880.65693,794.87222Z"/>
      <path class="cls-2" d="M950.88887,816.32242H933.59V753.58511H911.217V737.90054H973.2624v15.68457H950.88887Z"/>
      <path class="cls-2" d="M1034.84492,816.32242H989.40645V737.90054h45.43847v15.68457h-28.13965v15.56934h26.98633V784.838h-26.98633v15.7998h28.13965Z"/>
      <path class="cls-2" d="M1080.62812,737.90054c22.14258,0,38.98,17.06836,38.98,39.21094s-16.72217,39.21094-38.98,39.21094h-23.29589V737.90054ZM1079.59,800.40738c13.26269,0,22.37353-10.26368,22.37353-23.2959,0-13.03125-8.9956-23.18067-22.37353-23.18067h-5.18945v46.47657Z"/>
      <path class="cls-2" d="M1252.57832,789.68179a40.4241,40.4241,0,1,1-.11572-25.37109h-19.25928c-3.229-7.03516-11.07129-11.418-19.02881-11.418-12.68555,0-22.83447,10.95605-22.83447,24.21875,0,13.37793,10.14892,24.21875,22.83447,24.21875,8.07276,0,15.915-4.72852,19.144-11.64844Z"/>
      <path class="cls-2" d="M1319.4665,816.32242l-5.65088-15.79981H1283.946l-5.65088,15.79981h-18.56739l31.83008-78.42188h14.646l31.83008,78.42188ZM1298.823,758.42886l-9.918,27.90918h19.83643Z"/>
      <path class="cls-2" d="M1371.47725,816.32242h-17.29883V737.90054h29.4082c12.686,0,23.98779,10.26465,23.98779,25.1416,0,13.26172-7.95752,22.02735-17.87548,24.44922l22.48877,28.83106h-21.91211L1371.593,788.298h-.11572Zm0-64.81348V774.6896h9.22607c5.07471,0,10.37939-4.15136,10.37939-11.64746,0-7.15039-5.30468-11.5332-10.37939-11.5332Z"/>
      <path class="cls-2" d="M1487.14766,737.90054c22.14257,0,38.98,17.06836,38.98,39.21094s-16.72217,39.21094-38.98,39.21094h-23.2959V737.90054Zm-1.03809,62.50684c13.2627,0,22.37354-10.26368,22.37354-23.2959,0-13.03125-8.99561-23.18067-22.37354-23.18067h-5.18945v46.47657Z"/>
      <path class="cls-2" d="M1591.17061,816.32242h-45.43848V737.90054h45.43848v15.68457H1563.031v15.56934h26.98633V784.838H1563.031v15.7998h28.13965Z"/>
      <path class="cls-2" d="M1667.05439,816.32242l-5.65136-15.79981h-29.86914l-5.65039,15.79981h-18.56836l31.83007-78.42188h14.64649l31.83008,78.42188Zm-20.64355-57.89356-9.918,27.90918h19.83594Z"/>
      <path class="cls-2" d="M1701.76631,737.90054h17.29883v62.7373h28.13965v15.68458h-45.43848Z"/>
      <path class="cls-2" d="M1812.24873,816.32242h-45.43848V737.90054h45.43848v15.68457h-28.13965v15.56934h26.98633V784.838h-26.98633v15.7998h28.13965Z"/>
      <path class="cls-2" d="M1852.03486,816.32242H1834.736V737.90054h29.4082c12.68555,0,23.9873,10.26465,23.9873,25.1416,0,13.26172-7.957,22.02735-17.876,24.44922l22.48925,28.83106h-21.91211L1852.1501,788.298h-.11524Zm0-64.81348V774.6896h9.22559c5.07422,0,10.37988-4.15136,10.37988-11.64746,0-7.15039-5.30566-11.5332-10.37988-11.5332Z"/>
      <path class="cls-2" d="M1951.32979,794.87222c0-15.22363-45.32325-5.4209-45.32325-34.36719,0-16.14551,14.99219-23.75781,29.293-23.75781,16.14551,0,30.67676,7.15039,31.25293,25.02637h-16.72265c-.92188-8.18848-5.6504-10.84082-14.29981-10.84082-4.84375,0-11.64844,2.30664-11.64844,8.18847,0,13.9541,45.32325,3.9209,45.32325,33.79,0,18.45215-16.49122,25.25684-32.52149,25.25684-17.29883,0-33.09863-8.53418-33.21387-27.67871h17.5293c.46094,9.34179,7.8418,13.6084,16.376,13.6084C1942.79561,804.09781,1951.32979,801.9064,1951.32979,794.87222Z"/>
      <path class="cls-2" d="M2049.81611,737.90054v78.42188H2031.364V784.838h-25.833v31.48438h-17.29883V737.90054H2005.531v31.25391h25.833V737.90054Z"/>
      <path class="cls-2" d="M2072.30342,816.32242V737.90054h17.29883v78.42188Z"/>
      <path class="cls-2" d="M2129.38838,816.32242h-17.29883V737.90054h29.4082c12.68555,0,23.98731,10.26465,23.98731,25.1416,0,15.915-11.30176,25.25586-23.98731,25.25586h-12.10937Zm0-64.81348V774.6896h9.22558c5.07422,0,10.37989-4.15136,10.37989-11.64746,0-7.15039-5.30567-11.5332-10.37989-11.5332Z"/>
      <path class="cls-2" d="M2264.54854,816.32242,2237.56221,767.424v48.89844h-17.29883V737.90054h17.29883l26.98633,48.89844V737.90054h17.29882v78.42188Z"/>
      <path class="cls-2" d="M2349.77314,816.32242h-45.43847V737.90054h45.43847v15.68457H2321.6335v15.56934h26.98632V784.838H2321.6335v15.7998h28.13964Z"/>
      <path class="cls-2" d="M2405.58955,816.32242h-17.29883V753.58511h-22.374V737.90054h62.0459v15.68457h-22.373Z"/>
      <path class="cls-2" d="M2526.68037,816.32242h-20.52832l-16.26074-55.01075-16.376,55.01075H2452.987l-15.22363-78.42188h19.0293l9.22558,54.08789,15.33887-54.08789h16.95312l15.33789,54.08789,9.22657-54.08789H2541.903Z"/>
      <path class="cls-2" d="M2595.52705,817.47574c-21.68164,0-40.36426-18.68262-40.36426-40.36426s18.68262-40.36426,40.36426-40.36426,40.36426,18.68262,40.36426,40.36426S2617.20869,817.47574,2595.52705,817.47574Zm0-63.54493c-12.10937,0-23.06543,10.95606-23.06543,23.06543s10.95606,23.18067,23.06543,23.18067,23.06543-11.07129,23.06543-23.18067S2607.63643,753.93081,2595.52705,753.93081Z"/>
      <path class="cls-2" d="M2672.79463,816.32242H2655.4958V737.90054h29.4082c12.68555,0,23.98731,10.26465,23.98731,25.1416,0,13.26172-7.957,22.02735-17.876,24.44922l22.48926,28.83106h-21.91211L2672.90986,788.298h-.11523Zm0-64.81348V774.6896h9.22558c5.07422,0,10.37989-4.15136,10.37989-11.64746,0-7.15039-5.30567-11.5332-10.37989-11.5332Z"/>
      <path class="cls-2" d="M2744.988,816.32242h-17.29883V737.90054H2744.988v35.05957l24.79492-35.05957h22.14258l-30.10059,39.21094,31.25391,39.21094h-23.2959l-24.79492-35.0586Z"/>
    </g>
    <g>
      <path class="cls-2" d="M1127.72285,621.97085q-26.77881-27.95654-26.7749-76.77051V357.54068q0-60.65406,24.16846-91.46045,24.16845-30.79908,75.82226-30.80274,45.01539,0,72.50488,24.64209,27.47828,24.646,27.48536,71.0835v70.13574h-81.03467V340.95474q0-17.52686-4.26514-24.16846-4.26489-6.63061-14.69043-6.63476-10.90722,0-14.92773,7.58252-4.03125,7.5857-4.02783,22.27295V544.25308q0,16.11474,4.73876,23.457,4.73145,7.35351,14.2168,7.3457,18.94776,0,18.95557-30.80273V470.8h81.98242v76.77051q0,102.35889-102.8335,102.35938Q1154.49361,649.92984,1127.72285,621.97085Z"/>
      <path class="cls-2" d="M1329.83564,646.13882l39.33252-407.07031H1507.07l38.85889,407.07031h-77.24414l-5.68653-65.87012h-49.28418l-4.73926,65.87012Zm90.03858-130.793h36.96338L1438.82979,308.256h-3.791Z"/>
      <path class="cls-2" d="M1582.41182,239.06851h125.10644q29.855,0,46.2041,13.50586t22.03614,37.91113q5.68652,24.41235,5.68652,62.31641,0,34.59741-9.00391,54.02343-9.00732,19.437-31.27636,27.01172,18.48194,3.79834,26.77441,18.48145,8.28516,14.69385,8.293,39.80664l-.94727,154.01367h-79.61328V486.91226q0-17.05957-6.63476-21.79883-6.64161-4.73145-24.168-4.73926V646.13882h-82.457ZM1684.77217,389.7648q17.05956,0,17.05957-36.96289,0-16.10523-1.42188-24.16846-1.42089-8.05224-5.21289-11.13623-3.79833-3.07691-10.89941-3.08057h-18.95508V389.7648Z"/>
      <path class="cls-2" d="M1852.05049,646.13882l-43.59863-407.07031h79.61328l22.74707,256.84766,22.74707-256.84766h75.82129l21.7998,256.84766,21.79883-256.84766h80.56055l-44.54493,407.07031h-97.62109L1970.9958,449.94937l-19.42871,196.18945Z"/>
      <path class="cls-2" d="M2148.70088,646.13882l39.333-407.07031h137.90136l38.8584,407.07031h-77.24316L2281.864,580.2687h-49.28515l-4.73828,65.87012Zm90.03906-130.793h36.96289L2257.695,308.256h-3.791Z"/>
      <path class="cls-2" d="M2428.76533,646.13882l-50.23242-407.54443h77.71777l29.8545,277.2251,26.53808-277.2251H2590.361l-50.23243,407.54443Z"/>
      <path class="cls-2" d="M2625.42549,646.13882V239.06851h163.01758V317.734h-80.08692V396.8732h76.76953v76.7705h-76.76953v93.35547H2793.656v79.13965Z"/>
    </g>
  </g>
</svg>
