<svg id="Pages" xmlns="http://www.w3.org/2000/svg" viewBox="0 0 227.37 78.63"><defs><style>.cls-1{fill:#f3bb1a;}.cls-2,.cls-6{fill:#3b356e;}.cls-3{font-size:8.65px;fill:#4e4e4e;font-family:GlacialIndifference-Bold, Glacial Indifference;font-weight:700;letter-spacing:-0.01em;}.cls-4{letter-spacing:0.07em;}.cls-5{letter-spacing:0.03em;}.cls-6{font-size:35.53px;font-family:Anton-Regular, Anton;letter-spacing:0.03em;}.cls-7{letter-spacing:0em;}.cls-8{letter-spacing:0.02em;}</style></defs><title>carwave</title><path class="cls-1" d="M44.31,49.18h-8c1.36-11,7.65-20.11,9-31.06h8C52,29.07,45.68,38.22,44.31,49.18Z"/><path class="cls-2" d="M40.13,26.24a21.73,21.73,0,0,0,1.53-8H26.34c-1.42,10.84-7.61,19.92-9,30.77H32.63a21.48,21.48,0,0,1,1.53-8H26.82c1.79-5,4.19-9.8,6-14.82Z"/><path class="cls-1" d="M56.07,49.18h-8c1.37-11,7.66-20.11,9-31.06h8C63.73,29.07,57.44,38.22,56.07,49.18Z"/><path class="cls-1" d="M67.47,49.18h-8c1.37-11,7.66-20.11,9-31.06h8C75.13,29.07,68.84,38.22,67.47,49.18Z"/><text class="cls-3" transform="translate(17.58 60.98)">Y<tspan class="cls-4" x="5.69" y="0">OUR TRUSTED </tspan><tspan class="cls-5" x="70.12" y="0">C</tspan><tspan class="cls-4" x="76.82" y="0">AR DEALERSHIP NETWORK</tspan></text><text class="cls-6" transform="translate(81.44 48.22)">CAR<tspan class="cls-7" x="53.69" y="0">WA</tspan><tspan class="cls-8" x="96.51" y="0">VE</tspan></text></svg>