<svg id="Layer_1" data-name="Layer 1" xmlns="http://www.w3.org/2000/svg" viewBox="0 0 3014.14371 1056.04537">
  <defs>
    <style>
      .cls-1 {
        fill: #f3bb1a;
      }

      .cls-2 {
        fill: #3b356e;
      }

      .cls-3 {
        fill: #4e4e4e;
      }
    </style>
  </defs>
  <title>CARWAVE-logo</title>
  <g>
    <g>
      <path class="cls-1" d="M591.00343,661.438H484.60775c18.246-146.12656,102.13234-268.05617,120.3786-414.18275H711.382C693.13593,393.38187,609.24934,515.31134,591.00343,661.438Z"/>
      <path class="cls-2" d="M535.20271,355.55085c14.33124-42.55832,20.0397-63.83775,20.3782-106.39585-39.13838,0-58.70766,0-97.846,0H351.33964c-18.87638,144.62063-101.43743,265.67282-120.363,410.28267h.4119l-.00079.10019,203.82963.00009c.33858-42.55843,6.04687-63.83732,20.37794-106.39537-39.13838-.00005-58.70765-.00005-97.846-.00005,23.81488-67.01412,55.79289-130.57735,79.60733-197.59169C476.49506,355.55085,496.06433,355.55085,535.20271,355.55085Z"/>
      <path class="cls-1" d="M747.74671,661.43793l-106.3955,0c18.24592-146.12665,102.13268-268.056,120.3786-414.18275H868.12565C849.87956,393.382,765.9928,515.31125,747.74671,661.43793Z"/>
      <path class="cls-1" d="M899.74013,661.43786l-106.39533,0C811.59089,515.31125,895.47766,393.382,913.72375,247.2552h106.39532C1001.87316,393.38191,917.98639,515.3113,899.74013,661.43786Z"/>
    </g>
    <g>
      <path class="cls-3" d="M264.4377,781.363,235.49482,740.428h20.64063l16.95068,27.09766L290.03682,740.428h20.64062L281.73457,781.363v37.47607H264.4377Z"/>
      <path class="cls-3" d="M354.83955,819.99241c-21.67822,0-40.35889-18.68066-40.35889-40.35888s18.68067-40.35889,40.35889-40.35889c21.67871,0,40.35889,18.68066,40.35889,40.35889S376.51826,819.99241,354.83955,819.99241Zm0-63.53662c-12.10742,0-23.062,10.95459-23.062,23.0625,0,12.10742,10.95459,23.17725,23.062,23.17725,12.10791,0,23.062-11.06983,23.062-23.17725C377.90156,767.41038,366.94746,756.45579,354.83955,756.45579Z"/>
      <path class="cls-3" d="M477.87178,740.428v47.854c0,20.8711-11.99219,31.71045-32.40235,31.71045s-32.40234-10.83935-32.40234-31.71045V740.428h17.29639v45.31689c0,10.83936,3.34423,16.95069,15.106,16.95069,11.877,0,15.10547-6.11133,15.10547-16.95069V740.428Z"/>
      <path class="cls-3" d="M515.92109,818.83909H498.62422V740.428h29.4043c12.68408,0,23.98486,10.2627,23.98486,25.1377,0,13.26074-7.95654,22.02441-17.87305,24.4458l22.48535,28.82763H534.7165l-18.68017-28.0205h-.11524Zm0-64.80468v23.17773h9.22461c5.07373,0,10.37793-4.15137,10.37793-11.64648,0-7.14942-5.3042-11.53125-10.37793-11.53125Z"/>
      <path class="cls-3" d="M641.60566,818.83909H624.30879v-62.729H601.93867V740.428h62.03711v15.68213H641.60566Z"/>
      <path class="cls-3" d="M697.4123,818.83909H680.11543V740.428h29.4043c12.68408,0,23.98486,10.2627,23.98486,25.1377,0,13.26074-7.95654,22.02441-17.87305,24.4458l22.48535,28.82763H716.20771l-18.68017-28.0205h-.11524Zm0-64.80468v23.17773h9.22461c5.07373,0,10.37793-4.15137,10.37793-11.64648,0-7.14942-5.3042-11.53125-10.37793-11.53125Z"/>
      <path class="cls-3" d="M815.37227,740.428v47.854c0,20.8711-11.99219,31.71045-32.40235,31.71045s-32.40234-10.83935-32.40234-31.71045V740.428H767.864v45.31689c0,10.83936,3.34424,16.95069,15.106,16.95069,11.87695,0,15.10547-6.11133,15.10547-16.95069V740.428Z"/>
      <path class="cls-3" d="M880.51924,797.39134c0-15.22119-45.31738-5.41943-45.31738-34.36279,0-16.14356,14.99023-23.75391,29.28906-23.75391,16.14355,0,30.67236,7.14941,31.249,25.02246H879.02021c-.92285-8.187-5.65039-10.83935-14.29882-10.83935-4.84278,0-11.64649,2.30664-11.64649,8.187,0,13.95263,45.31739,3.9209,45.31739,33.78613,0,18.44971-16.48975,25.25293-32.51758,25.25293-17.29688,0-33.09424-8.53272-33.20948-27.67432h17.52686c.46143,9.34034,7.84131,13.60645,16.37451,13.60645C871.986,806.616,880.51924,804.425,880.51924,797.39134Z"/>
      <path class="cls-3" d="M950.73994,818.83909H933.44307v-62.729H911.073V740.428h62.03711v15.68213H950.73994Z"/>
      <path class="cls-3" d="M1034.68232,818.83909H989.24971V740.428h45.43261v15.68213h-28.13574V771.677H1033.529v15.68213h-26.98242V803.157h28.13574Z"/>
      <path class="cls-3" d="M1080.45771,740.428c22.13965,0,38.9751,17.06592,38.9751,39.20557s-16.72021,39.20556-38.9751,39.20556h-23.293V740.428Zm-1.03759,62.49805c13.26025,0,22.37011-10.26221,22.37011-23.29248s-8.99414-23.17774-22.37011-23.17774h-5.189V802.926Z"/>
      <path class="cls-3" d="M1252.38105,792.20237a40.418,40.418,0,1,1-.11523-25.36816H1233.009c-3.22851-7.03418-11.06982-11.416-19.02636-11.416-12.68408,0-22.83155,10.95459-22.83155,24.21534,0,13.376,10.14747,24.21533,22.83155,24.21533,8.07177,0,15.91308-4.728,19.1416-11.64649Z"/>
      <path class="cls-3" d="M1319.2585,818.83909l-5.65039-15.79736h-29.86524l-5.65039,15.79736h-18.56494l31.82568-78.41113h14.64453l31.82569,78.41113Zm-20.64063-57.88574-9.917,27.90479h19.83349Z"/>
      <path class="cls-3" d="M1371.26045,818.83909h-17.29688V740.428h29.4043c12.68408,0,23.98486,10.2627,23.98486,25.1377,0,13.26074-7.95654,22.02441-17.87353,24.4458l22.48584,28.82763h-21.90918l-18.68018-28.0205h-.11523Zm0-64.80468v23.17773h9.22461c5.07373,0,10.37793-4.15137,10.37793-11.64648,0-7.14942-5.3042-11.53125-10.37793-11.53125Z"/>
      <path class="cls-3" d="M1486.91279,740.428c22.13965,0,38.9751,17.06592,38.9751,39.20557s-16.72021,39.20556-38.9751,39.20556h-23.293V740.428ZM1485.8752,802.926c13.26025,0,22.37011-10.26221,22.37011-23.29248s-8.99414-23.17774-22.37011-23.17774h-5.189V802.926Z"/>
      <path class="cls-3" d="M1590.91963,818.83909H1545.487V740.428h45.43262v15.68213h-28.13574V771.677h26.98242v15.68213h-26.98242V803.157h28.13574Z"/>
      <path class="cls-3" d="M1666.7917,818.83909l-5.65039-15.79736h-29.86524l-5.65039,15.79736h-18.56543l31.82618-78.41113H1653.531l31.82519,78.41113Zm-20.64063-57.88574-9.917,27.90479h19.834Z"/>
      <path class="cls-3" d="M1701.49678,740.428h17.2959v62.729h28.13574v15.68213h-45.43164Z"/>
      <path class="cls-3" d="M1811.96162,818.83909H1766.53V740.428h45.43164v15.68213h-28.13574V771.677h26.9834v15.68213h-26.9834V803.157h28.13574Z"/>
      <path class="cls-3" d="M1851.74092,818.83909H1834.445V740.428h29.4043c12.68359,0,23.98437,10.2627,23.98437,25.1377,0,13.26074-7.957,22.02441-17.873,24.4458l22.48536,28.82763h-21.90918l-18.68067-28.0205h-.11523Zm0-64.80468v23.17773h9.22558c5.07325,0,10.37793-4.15137,10.37793-11.64648,0-7.14942-5.30468-11.53125-10.37793-11.53125Z"/>
      <path class="cls-3" d="M1951.02021,797.39134c0-15.22119-45.31738-5.41943-45.31738-34.36279,0-16.14356,14.99024-23.75391,29.28906-23.75391,16.14356,0,30.67286,7.14941,31.249,25.02246h-16.71973c-.92285-8.187-5.65039-10.83935-14.29883-10.83935-4.84277,0-11.64648,2.30664-11.64648,8.187,0,13.95263,45.31738,3.9209,45.31738,33.78613,0,18.44971-16.48926,25.25293-32.51758,25.25293-17.29687,0-33.09472-8.53272-33.21-27.67432h17.52735c.46191,9.34034,7.84179,13.60645,16.374,13.60645C1942.487,806.616,1951.02021,804.425,1951.02021,797.39134Z"/>
      <path class="cls-3" d="M2049.49189,740.428v78.41113h-18.44921v-31.48H2005.2126v31.48h-17.2959V740.428h17.2959v31.249h25.83008V740.428Z"/>
      <path class="cls-3" d="M2071.97529,818.83909V740.428h17.2959v78.41113Z"/>
      <path class="cls-3" d="M2129.05049,818.83909h-17.2959V740.428h29.4043c12.68359,0,23.98437,10.2627,23.98437,25.1377,0,15.91259-11.30078,25.25293-23.98437,25.25293h-12.1084Zm0-64.80468v23.17773h9.22558c5.07325,0,10.37793-4.15137,10.37793-11.64648,0-7.14942-5.30468-11.53125-10.37793-11.53125Z"/>
      <path class="cls-3" d="M2264.19111,818.83909l-26.9834-48.8916v48.8916h-17.29589V740.428h17.29589l26.9834,48.8916V740.428h17.2959v78.41113Z"/>
      <path class="cls-3" d="M2349.40205,818.83909h-45.43164V740.428h45.43164v15.68213h-28.13574V771.677h26.9834v15.68213h-26.9834V803.157h28.13574Z"/>
      <path class="cls-3" d="M2405.20967,818.83909h-17.2959v-62.729h-22.37109V740.428h62.03711v15.68213h-22.37012Z"/>
      <path class="cls-3" d="M2526.28193,818.83909h-20.52539l-16.25879-55.00341-16.374,55.00341h-20.52539L2437.37666,740.428H2456.403l9.22558,54.08057,15.33594-54.08057h16.9502l15.33691,54.08057,9.22461-54.08057h19.02637Z"/>
      <path class="cls-3" d="M2595.11787,819.99241c-21.67871,0-40.3584-18.68066-40.3584-40.35888s18.67969-40.35889,40.3584-40.35889,40.3584,18.68066,40.3584,40.35889S2616.79658,819.99241,2595.11787,819.99241Zm0-63.53662c-12.10742,0-23.0625,10.95459-23.0625,23.0625,0,12.10742,10.95508,23.17725,23.0625,23.17725s23.0625-11.06983,23.0625-23.17725C2618.18037,767.41038,2607.22529,756.45579,2595.11787,756.45579Z"/>
      <path class="cls-3" d="M2672.3708,818.83909h-17.2959V740.428h29.4043c12.68359,0,23.98437,10.2627,23.98437,25.1377,0,13.26074-7.957,22.02441-17.873,24.4458l22.48535,28.82763H2691.1667l-18.68066-28.0205h-.11524Zm0-64.80468v23.17773h9.22559c5.07324,0,10.37793-4.15137,10.37793-11.64648,0-7.14942-5.30469-11.53125-10.37793-11.53125Z"/>
      <path class="cls-3" d="M2744.55244,818.83909h-17.2959V740.428h17.2959v35.0542l24.792-35.0542h22.13965l-30.0957,39.20557,31.249,39.20556h-23.293l-24.792-35.05468Z"/>
    </g>
    <g>
      <path class="cls-2" d="M1127.55146,624.52025q-26.77368-27.95142-26.7705-76.75782V360.13255q0-60.64453,24.16455-91.4458,24.16479-30.79469,75.81006-30.79785,45.00879,0,72.49365,24.63818,27.47388,24.64161,27.481,71.07178v70.12451h-81.022V343.54905q0-17.52392-4.26416-24.16455-4.26416-6.62988-14.68847-6.6333-10.905,0-14.92481,7.58106-4.03125,7.585-4.02734,22.269V546.81517q0,16.11327,4.73779,23.45361,4.73071,7.35132,14.21436,7.34424,18.94555,0,18.95263-30.79785V473.37376h81.96973v76.75781q0,102.34352-102.81738,102.34375Q1154.3183,652.47532,1127.55146,624.52025Z"/>
      <path class="cls-2" d="M1329.63252,648.6848l39.32617-407.00537h137.87988l38.85254,407.00537h-77.23144l-5.686-65.85987h-49.27636L1408.759,648.6848Zm90.02441-130.77246h36.95752l-18.00488-207.05665H1434.819Z"/>
      <path class="cls-2" d="M1582.16768,241.67943h125.08691q29.85059,0,46.19629,13.50341,16.34766,13.50366,22.03223,37.90528,5.68652,24.40869,5.68652,62.30615,0,34.59228-9.00293,54.01465-9.00586,19.43408-31.27149,27.00732,18.479,3.79834,26.77051,18.479,8.28369,14.69165,8.292,39.80029l-.94824,153.98926h-79.60058V489.48362q0-17.05737-6.63282-21.79541-6.64159-4.7307-24.165-4.73828V648.6848h-82.44336Zm102.34375,150.67236q17.05664,0,17.05761-36.95752,0-16.10229-1.42187-24.16455-1.4209-8.05078-5.21192-11.13428-3.79833-3.07617-10.89746-3.08008h-18.95312v75.33643Z"/>
      <path class="cls-2" d="M1851.7624,648.6848l-43.59082-407.00537h79.60059l22.74316,256.80664,22.74317-256.80664H2009.069L2030.864,498.48607l21.7959-256.80664h80.54785L2088.66963,648.6848h-97.60547l-20.374-196.1587-19.42676,196.1587Z"/>
      <path class="cls-2" d="M2148.36689,648.6848l39.32618-407.00537H2325.573l38.85254,407.00537H2287.194l-5.68554-65.85987h-49.27735l-4.7373,65.85987Zm90.02442-130.77246h36.957l-18.00488-207.05665h-3.79Z"/>
      <path class="cls-2" d="M2428.38643,648.6848l-50.22461-407.4795h77.70507L2485.71748,518.386l26.5332-277.18067h77.70606l-50.22461,407.4795Z"/>
      <path class="cls-2" d="M2625.01631,648.6848V241.67943H2788.0085v78.65283h-80.0752v79.12695h76.75781v76.75732H2707.9333v93.34131h85.28711v79.127Z"/>
    </g>
  </g>
</svg>
