<svg id="Layer_1" data-name="Layer 1" xmlns="http://www.w3.org/2000/svg" xmlns:xlink="http://www.w3.org/1999/xlink" viewBox="0 0 675.92 236.25"><defs><style>.cls-1,.cls-2,.cls-3,.cls-5{opacity:0.84;}.cls-1{fill:url(#linear-gradient);}.cls-2{fill:url(#linear-gradient-2);}.cls-3{fill:url(#linear-gradient-3);}.cls-4{fill:#fff;}.cls-5{fill:url(#linear-gradient-4);}</style><linearGradient id="linear-gradient" x1="320.24" y1="149.25" x2="577.78" y2="406.79" gradientUnits="userSpaceOnUse"><stop offset="0" stop-color="#3b356e" stop-opacity="0.5"/><stop offset="0.12" stop-color="#635e8c" stop-opacity="0.4"/><stop offset="0.45" stop-color="#b9b7cb" stop-opacity="0.18"/><stop offset="0.75" stop-color="#edecf2" stop-opacity="0.05"/><stop offset="1" stop-color="#fff" stop-opacity="0"/></linearGradient><linearGradient id="linear-gradient-2" x1="277.46" y1="41.7" x2="394.52" y2="158.75" gradientUnits="userSpaceOnUse"><stop offset="0" stop-color="#3b356e" stop-opacity="0.5"/><stop offset="0.01" stop-color="#423c73" stop-opacity="0.48"/><stop offset="0.22" stop-color="#9592b1" stop-opacity="0.27"/><stop offset="0.44" stop-color="#d1cfdd" stop-opacity="0.12"/><stop offset="0.69" stop-color="#f4f3f7" stop-opacity="0.03"/><stop offset="1" stop-color="#fff" stop-opacity="0"/></linearGradient><linearGradient id="linear-gradient-3" x1="108.01" y1="98.34" x2="356.02" y2="346.36" gradientUnits="userSpaceOnUse"><stop offset="0" stop-color="#3b356e" stop-opacity="0.5"/><stop offset="0.39" stop-color="#a19eb9" stop-opacity="0.24"/><stop offset="0.75" stop-color="#e6e5ed" stop-opacity="0.06"/><stop offset="1" stop-color="#fff" stop-opacity="0"/></linearGradient><linearGradient id="linear-gradient-4" x1="526.67" y1="152.89" x2="665.63" y2="291.84" gradientUnits="userSpaceOnUse"><stop offset="0" stop-color="#3b356e" stop-opacity="0.5"/><stop offset="0.4" stop-color="#a6a3bd" stop-opacity="0.23"/><stop offset="0.75" stop-color="#e7e7ee" stop-opacity="0.06"/><stop offset="1" stop-color="#fff" stop-opacity="0"/></linearGradient></defs><title>gears-w</title><path class="cls-1" d="M614.92,331.72c0,62-59.9,102.54-121.87,102.54-36.07,0-161.64-110.49-182.16-136.94A112.21,112.21,0,0,1,484,154.72C501.32,174.46,614.92,303.44,614.92,331.72Z"/><path class="cls-2" d="M411.4,124.64c0,28.16-27.23,46.6-55.39,46.6-16.4,0-73.47-50.22-82.8-62.24a51,51,0,0,1,78.7-64.82C359.77,53.15,411.4,111.78,411.4,124.64Z"/><path class="cls-3" d="M391.79,274.07c0,59.68-57.69,98.74-117.37,98.74-34.74,0-155.66-106.4-175.42-131.87A108.06,108.06,0,0,1,265.75,103.61C282.39,122.62,391.79,246.83,391.79,274.07Z"/><path class="cls-4" d="M395.46,141.91a83.24,83.24,0,1,0,83.24,83.24A83.24,83.24,0,0,0,395.46,141.91Zm12.92,8.61a18.66,18.66,0,1,1-18.66,18.66A18.67,18.67,0,0,1,408.38,150.52Zm-68.89,80.85a18.66,18.66,0,1,1,18.66-18.66A18.65,18.65,0,0,1,339.49,231.37Zm44,67.45a18.66,18.66,0,1,1,18.66-18.65A18.65,18.65,0,0,1,383.5,298.82Zm12.44-42.1A32.05,32.05,0,1,1,428,224.67,32.05,32.05,0,0,1,395.94,256.72Zm55.49-1a18.66,18.66,0,1,1,18.66-18.66A18.66,18.66,0,0,1,451.43,255.77Z"/><circle class="cls-4" cx="395.94" cy="224.67" r="14.83"/><path class="cls-4" d="M241.69,113.91a82.77,82.77,0,1,0,0,117.05A82.77,82.77,0,0,0,241.69,113.91Zm3,15.13a18.55,18.55,0,1,1-26.23,0A18.55,18.55,0,0,1,244.71,129Zm-105.27,8.41a18.55,18.55,0,1,1,26.23,0A18.54,18.54,0,0,1,139.44,137.45ZM123,215.82a18.55,18.55,0,1,1,26.23,0A18.54,18.54,0,0,1,123,215.82ZM161.3,195a31.87,31.87,0,1,1,45.07,0A31.86,31.86,0,0,1,161.3,195ZM201,233.31a18.55,18.55,0,1,1,26.23,0A18.54,18.54,0,0,1,201,233.31Z"/><circle class="cls-4" cx="183.83" cy="172.43" r="14.75"/><circle class="cls-4" cx="152.55" cy="124.34" r="14.75"/><circle class="cls-4" cx="231.6" cy="142.16" r="14.75"/><circle class="cls-4" cx="214.11" cy="220.19" r="14.75"/><circle class="cls-4" cx="136.07" cy="202.7" r="14.75"/><path class="cls-4" d="M509.65,230v-9.66H497.34q-.24-5.16-1-10.17l12.29-2.44-1.88-9.48-12.28,2.44a104.4,104.4,0,0,0-3-10.07l11.34-4.69-3.7-8.93-11.34,4.7a99.93,99.93,0,0,0-5-9.25l10.41-7-5.37-8-10.43,7a100.11,100.11,0,0,0-6.49-7.9l8.92-8.92L473,140.76l-8.92,8.92a102.92,102.92,0,0,0-8-6.56L462.85,133l-8-5.37-6.76,10.12a101.12,101.12,0,0,0-9.14-4.88l4.62-11.15L434.6,118,430,129.15a102.86,102.86,0,0,0-9.9-3l2.39-12L413,112.25l-2.39,12a100.24,100.24,0,0,0-10.31-1V111h-9.67v12.3c-3.4.16-6.75.49-10.06,1l-2.45-12.34-9.48,1.89,2.45,12.31a102,102,0,0,0-10.17,3.06l-4.69-11.33-8.93,3.7,4.7,11.34a101.59,101.59,0,0,0-9.1,4.86L336,127.43l-8,5.37,6.89,10.3a105.41,105.41,0,0,0-8.18,6.72l-9-9-6.83,6.83,9,9c-2.29,2.52-4.44,5.17-6.47,7.91l-10.4-7-5.37,8,10.4,6.94a102.63,102.63,0,0,0-4.86,9.08L291.71,177,288,185.88l11.45,4.74a97.9,97.9,0,0,0-3,9.92l-12.39-2.46-1.89,9.48L294.58,210a102.62,102.62,0,0,0-1,10.3h-12.3V230h12.3q.26,5.31,1,10.45l-11.81,2.35,1.88,9.48,11.83-2.35q1.25,5,3,9.76l-11.35,4.7,3.7,8.93,11.36-4.7q2.19,4.63,4.81,9l-10,6.7,5.37,8,10-6.7a103.49,103.49,0,0,0,6.64,8.12l-9,9,6.83,6.84,9-9a103.06,103.06,0,0,0,8,6.58l-6.9,10.32,8,5.37,6.89-10.31a102.3,102.3,0,0,0,9.13,4.88L347.21,329l8.93,3.69,4.78-11.55a100.76,100.76,0,0,0,9.93,3l-2.4,12.08,9.48,1.89,2.4-12.09a102.62,102.62,0,0,0,10.3,1v12.31h9.67V327a104.38,104.38,0,0,0,10.55-1l2.34,11.77,9.48-1.89-2.34-11.79q4.92-1.24,9.66-2.94l4.7,11.36,8.93-3.69-4.71-11.38a99.34,99.34,0,0,0,9.17-4.9l6.78,10.14,8-5.37-6.78-10.15a98.58,98.58,0,0,0,7.83-6.42l9,9,6.84-6.83-9-9a101.73,101.73,0,0,0,6.67-8.1l10.05,6.72,5.37-8-10-6.71a102.08,102.08,0,0,0,4.91-9.18L499,273.27l3.7-8.93-11.24-4.66a99.29,99.29,0,0,0,3-9.9l11.72,2.33,1.89-9.48-11.72-2.33a103,103,0,0,0,1-10.32ZM395.46,318.47a93.32,93.32,0,1,1,93.32-93.32A93.32,93.32,0,0,1,395.46,318.47Z"/><path class="cls-4" d="M295.35,176.43v-8H284.43a101,101,0,0,0-6.15-31.08l10.05-4.16-3.06-7.4L275.21,130a101.84,101.84,0,0,0-17.62-26.32l7.94-7.94-5.66-5.65L251.93,98a101.56,101.56,0,0,0-26.32-17.61l4.09-9.87-7.39-3.06-4.08,9.86a101,101,0,0,0-31.07-6.14V60.25h-8V71.17a100.77,100.77,0,0,0-31.08,6.15l-4.16-10-7.39,3.06,4.17,10a101.25,101.25,0,0,0-26.46,17.74l-8-8-5.66,5.66,8,8A101.54,101.54,0,0,0,91.11,130l-10.17-4.22-3.06,7.39L88,137.36a101.29,101.29,0,0,0-6.15,31.07H71v8H81.89A101.23,101.23,0,0,0,88,207.49L78,211.66,81,219.05l10.07-4.17a101.34,101.34,0,0,0,17.62,26.32l-8.07,8.06,5.66,5.66,8.06-8.06a101.39,101.39,0,0,0,26.33,17.62l-4.25,10.27,7.39,3.06,4.25-10.26a101,101,0,0,0,31.07,6.15v10.92h8V273.7a100.87,100.87,0,0,0,31.06-6.14l4.18,10.07,7.39-3.06-4.18-10.08A101.54,101.54,0,0,0,251.8,247l8,8,5.65-5.66-8-8a101.5,101.5,0,0,0,17.74-26.46l10,4.13,3.06-7.39-10-4.13a100.94,100.94,0,0,0,6.15-31.07ZM183.16,265.91a93.48,93.48,0,1,1,93.47-93.48A93.47,93.47,0,0,1,183.16,265.91Z"/><path class="cls-4" d="M360.49,86.12A46.86,46.86,0,0,0,361,79a45.87,45.87,0,0,0-4.7-20.3l9.81-5.92L362,45.89l-9.82,5.92a46.19,46.19,0,0,0-22.33-16.5l2.71-11-7.77-1.92L322.1,33.37a46.35,46.35,0,0,0-7.21-.56,45.89,45.89,0,0,0-20.37,4.74l-5.92-9.81-6.85,4.13,5.93,9.82A46.22,46.22,0,0,0,271.23,64l-10.91-2.7-1.92,7.77,10.9,2.7a46.25,46.25,0,0,0,4.15,27.51l-9.83,5.93,4.13,6.85,9.84-5.94A46.22,46.22,0,0,0,300,122.64l-2.71,10.93,7.77,1.92,2.71-10.93a46.46,46.46,0,0,0,7.13.55,45.88,45.88,0,0,0,20.26-4.68l5.93,9.84,6.85-4.13L342,116.3a46.19,46.19,0,0,0,16.56-22.41l11,2.72,1.92-7.77Zm-21.86,16.54a33.52,33.52,0,1,1,0-47.4A33.52,33.52,0,0,1,338.63,102.66Z"/><circle class="cls-4" cx="314.93" cy="78.96" r="22.03"/><path class="cls-5" d="M685.66,251.34c0,33.43-32.32,55.32-65.75,55.32-19.46,0-87.21-59.61-98.28-73.88a60.54,60.54,0,0,1,93.42-76.94C624.37,166.49,685.66,236.08,685.66,251.34Z"/><path class="cls-4" d="M565.29,168.36a23.1,23.1,0,1,0,23.1,23.1A23.1,23.1,0,0,0,565.29,168.36Zm0,35.29a12.19,12.19,0,1,1,12.19-12.19A12.19,12.19,0,0,1,565.29,203.65Z"/><path class="cls-4" d="M627.11,195.46v-8H615a49.82,49.82,0,0,0-2.25-11.32l11.23-4.65-3.07-7.39-11.23,4.65a49.94,49.94,0,0,0-6.4-9.59l8.71-8.71-5.65-5.66-8.7,8.7A49.94,49.94,0,0,0,588,147L592.59,136l-7.39-3.06-4.56,11a49.59,49.59,0,0,0-11.35-2.3v-12h-8v12a49.73,49.73,0,0,0-11.43,2.19l-4.53-10.95-7.39,3.06,4.52,10.91a50.69,50.69,0,0,0-9.82,6.5l-8.47-8.47-5.66,5.66,8.46,8.45a50.54,50.54,0,0,0-6.5,9.63l-10.82-4.49-3.06,7.39,10.79,4.47a49.89,49.89,0,0,0-2.32,11.52H503.47v8h11.58A49.39,49.39,0,0,0,517.31,207l-10.67,4.42,3.06,7.39,10.68-4.42a50.1,50.1,0,0,0,6.55,9.77l-8.37,8.38,5.65,5.65,8.39-8.39a50,50,0,0,0,9.78,6.5l-4.49,10.86,7.39,3.06,4.5-10.88a49.79,49.79,0,0,0,11.51,2.21v11.74h8V241.5a50.31,50.31,0,0,0,11.43-2.33l4.53,10.94,7.39-3.06-4.55-11a50.48,50.48,0,0,0,9.54-6.46l8.62,8.62,5.65-5.65-8.63-8.64a50.38,50.38,0,0,0,6.46-9.74l11.08,4.6,3.06-7.39-11.1-4.6A50,50,0,0,0,615,195.46ZM565.29,231a39.51,39.51,0,1,1,39.51-39.51A39.51,39.51,0,0,1,565.29,231Z"/><path class="cls-4" d="M215.77,48.58l-10-2.69-7.34,7.35,2.69,10,10,2.68,7.34-7.34Zm-7.34,11.68a4.34,4.34,0,1,1,4.33-4.34A4.33,4.33,0,0,1,208.43,60.26Z"/><path class="cls-4" d="M67,201.34l-14.77-4L41.44,208.2l4,14.76,14.77,4L71,216.11ZM56.21,218.53a6.38,6.38,0,1,1,6.38-6.38A6.38,6.38,0,0,1,56.21,218.53Z"/><polygon class="cls-4" points="233.6 43.13 233.6 43.13 233.59 43.13 233.6 43.13"/><path class="cls-4" d="M232.25,49.63l6.34,1.82a7.11,7.11,0,0,0-4.52-8.16Z"/><polygon class="cls-4" points="238.47 51.95 238.47 51.94 238.48 51.94 238.47 51.95"/><path class="cls-4" d="M231,50.32l-6.34-1.83a7.12,7.12,0,0,0,4.51,8.17Z"/><path class="cls-4" d="M231.28,49.35,233.11,43a7.12,7.12,0,0,0-8.17,4.52Z"/><path class="cls-4" d="M232,50.59l-1.82,6.34a7.09,7.09,0,0,0,8.16-4.51Z"/><polygon class="cls-4" points="499.49 153.33 499.48 153.33 499.48 153.33 499.49 153.33"/><path class="cls-4" d="M501.53,157.92l4.7-1.69a5.38,5.38,0,0,0-6.38-3Z"/><polygon class="cls-4" points="506.38 156.59 506.38 156.58 506.38 156.58 506.38 156.59"/><path class="cls-4" d="M501.08,158.89l-4.7,1.69a5.37,5.37,0,0,0,6.38,3Z"/><path class="cls-4" d="M500.82,158.18l-1.69-4.7a5.38,5.38,0,0,0-3,6.38Z"/><path class="cls-4" d="M501.79,158.63l1.69,4.7a5.37,5.37,0,0,0,3-6.38Z"/></svg>