<svg id="Layer_1" data-name="Layer 1" xmlns="http://www.w3.org/2000/svg" xmlns:xlink="http://www.w3.org/1999/xlink" viewBox="0 0 675.92 453.94"><defs><style>.cls-1,.cls-2,.cls-3,.cls-4{opacity:0.84;}.cls-1{fill:url(#linear-gradient);}.cls-2{fill:url(#linear-gradient-2);}.cls-3{fill:url(#linear-gradient-3);}.cls-4{fill:url(#linear-gradient-4);}.cls-5{fill:#3b356e;}</style><linearGradient id="linear-gradient" x1="361.04" y1="131.88" x2="618.58" y2="389.42" gradientUnits="userSpaceOnUse"><stop offset="0" stop-color="#3b356e" stop-opacity="0.5"/><stop offset="0.12" stop-color="#635e8c" stop-opacity="0.4"/><stop offset="0.45" stop-color="#b9b7cb" stop-opacity="0.18"/><stop offset="0.75" stop-color="#edecf2" stop-opacity="0.05"/><stop offset="1" stop-color="#fff" stop-opacity="0"/></linearGradient><linearGradient id="linear-gradient-2" x1="271.28" y1="279.68" x2="410.23" y2="418.63" gradientUnits="userSpaceOnUse"><stop offset="0" stop-color="#3b356e" stop-opacity="0.5"/><stop offset="0.4" stop-color="#a6a3bd" stop-opacity="0.23"/><stop offset="0.75" stop-color="#e7e7ee" stop-opacity="0.06"/><stop offset="1" stop-color="#fff" stop-opacity="0"/></linearGradient><linearGradient id="linear-gradient-3" x1="318.26" y1="24.33" x2="435.32" y2="141.39" gradientUnits="userSpaceOnUse"><stop offset="0" stop-color="#3b356e" stop-opacity="0.5"/><stop offset="0.01" stop-color="#423c73" stop-opacity="0.48"/><stop offset="0.22" stop-color="#9592b1" stop-opacity="0.27"/><stop offset="0.44" stop-color="#d1cfdd" stop-opacity="0.12"/><stop offset="0.69" stop-color="#f4f3f7" stop-opacity="0.03"/><stop offset="1" stop-color="#fff" stop-opacity="0"/></linearGradient><linearGradient id="linear-gradient-4" x1="148.81" y1="80.98" x2="396.83" y2="328.99" gradientUnits="userSpaceOnUse"><stop offset="0" stop-color="#3b356e" stop-opacity="0.5"/><stop offset="0.39" stop-color="#a19eb9" stop-opacity="0.24"/><stop offset="0.75" stop-color="#e6e5ed" stop-opacity="0.06"/><stop offset="1" stop-color="#fff" stop-opacity="0"/></linearGradient></defs><title>Untitled-3</title><path class="cls-1" d="M655.72,314.36c0,62-59.9,102.54-121.87,102.54-36.07,0-161.63-110.49-182.16-136.94a112.21,112.21,0,0,1,173.16-142.6C542.12,157.09,655.72,286.07,655.72,314.36Z"/><path class="cls-2" d="M430.27,378.13c0,33.44-32.32,55.33-65.76,55.33-19.46,0-87.21-59.62-98.28-73.89a60.54,60.54,0,0,1,93.42-76.93C369,293.28,430.27,362.87,430.27,378.13Z"/><path class="cls-3" d="M452.21,107.27c0,28.17-27.23,46.61-55.4,46.61-16.4,0-73.47-50.22-82.8-62.24a51,51,0,0,1,78.71-64.82C400.57,35.79,452.21,94.41,452.21,107.27Z"/><path class="cls-4" d="M432.59,256.7c0,59.68-57.68,98.75-117.36,98.75-34.74,0-155.66-106.4-175.43-131.88A108.06,108.06,0,0,1,306.56,86.25C323.19,105.25,432.59,229.46,432.59,256.7Z"/><path class="cls-5" d="M436.27,120.79a87,87,0,1,0,87,87A87,87,0,0,0,436.27,120.79Zm13.5,9a19.5,19.5,0,1,1-19.5,19.5A19.5,19.5,0,0,1,449.77,129.79Zm-72,84.5a19.5,19.5,0,1,1,19.5-19.5A19.5,19.5,0,0,1,377.77,214.29Zm46,70.5a19.5,19.5,0,1,1,19.5-19.5A19.5,19.5,0,0,1,423.77,284.79Zm13-44a33.5,33.5,0,1,1,33.5-33.5A33.5,33.5,0,0,1,436.77,240.79Zm58-1a19.5,19.5,0,1,1,19.5-19.5A19.5,19.5,0,0,1,494.77,239.79Z"/><circle class="cls-5" cx="436.77" cy="207.29" r="15.5"/><path class="cls-5" d="M285.48,93.55a87,87,0,1,0,0,123A87,87,0,0,0,285.48,93.55Zm3.19,15.91a19.5,19.5,0,1,1-27.58,0A19.51,19.51,0,0,1,288.67,109.46ZM178,118.3a19.5,19.5,0,1,1,27.58,0A19.51,19.51,0,0,1,178,118.3Zm-17.32,82.38a19.5,19.5,0,1,1,27.58,0A19.49,19.49,0,0,1,160.68,200.68ZM201,178.76a33.5,33.5,0,1,1,47.38,0A33.51,33.51,0,0,1,201,178.76Zm41.72,40.3a19.5,19.5,0,1,1,27.58,0A19.5,19.5,0,0,1,242.7,219.06Z"/><circle class="cls-5" cx="224.67" cy="155.07" r="15.5"/><circle class="cls-5" cx="191.79" cy="104.51" r="15.5"/><circle class="cls-5" cx="274.88" cy="123.25" r="15.5"/><circle class="cls-5" cx="256.49" cy="205.27" r="15.5"/><circle class="cls-5" cx="174.47" cy="186.89" r="15.5"/><path class="cls-5" d="M550.45,212.62V203h-12.3c-.16-3.44-.5-6.83-1-10.17l12.3-2.44-1.89-9.48-12.28,2.44a100,100,0,0,0-3-10.07l11.34-4.7-3.7-8.92-11.35,4.7a103.84,103.84,0,0,0-4.95-9.26L534,148.11l-5.37-8-10.43,7q-3.06-4.11-6.49-7.89l8.92-8.92-6.84-6.83-8.92,8.92a102.35,102.35,0,0,0-8-6.56l6.76-10.13-8-5.37-6.76,10.12a100,100,0,0,0-9.14-4.88l4.62-11.15-8.93-3.7-4.62,11.14a100.1,100.1,0,0,0-9.9-3l2.39-12-9.48-1.88-2.39,12a102.53,102.53,0,0,0-10.31-1V93.6h-9.67v12.31c-3.39.16-6.75.49-10.05,1l-2.46-12.34-9.47,1.89,2.45,12.31a99.62,99.62,0,0,0-10.18,3.06L397,100.47l-8.93,3.7,4.7,11.33a100.07,100.07,0,0,0-9.09,4.86l-6.89-10.3-8,5.37,6.88,10.31a101.24,101.24,0,0,0-8.17,6.72l-9-9-6.84,6.84,9,9q-3.42,3.78-6.47,7.9l-10.39-6.94-5.37,8,10.39,6.95a99.81,99.81,0,0,0-4.85,9.08l-11.46-4.75-3.7,8.93,11.45,4.75a102.44,102.44,0,0,0-3,9.92l-12.39-2.47L323,190.19l12.39,2.47a102.33,102.33,0,0,0-1,10.3H322.08v9.66h12.31a99.92,99.92,0,0,0,1,10.45l-11.82,2.35,1.89,9.48,11.83-2.35a98.14,98.14,0,0,0,3,9.76L328.91,247l3.7,8.93L344,251.23q2.19,4.64,4.81,9l-10,6.7,5.38,8,10-6.7a103.64,103.64,0,0,0,6.64,8.13l-9,9,6.83,6.83,9.05-9a101,101,0,0,0,8,6.57l-6.9,10.33,8,5.37,6.89-10.32a99.79,99.79,0,0,0,9.13,4.88L388,311.63l8.92,3.7,4.79-11.55a99.9,99.9,0,0,0,9.93,3l-2.41,12.09,9.48,1.88,2.4-12.08a102.9,102.9,0,0,0,10.3,1V322h9.67v-12.3a102,102,0,0,0,10.56-1L454,320.4l9.48-1.88-2.35-11.8a100.77,100.77,0,0,0,9.66-2.93l4.71,11.36,8.92-3.7-4.71-11.37a102,102,0,0,0,9.18-4.9l6.77,10.13,8-5.37-6.78-10.14c2.71-2,5.33-4.15,7.83-6.42l9,9,6.83-6.83-9-9a103.55,103.55,0,0,0,6.67-8.1l10.06,6.72,5.37-8-10.05-6.71a102.16,102.16,0,0,0,4.92-9.18l11.24,4.65,3.7-8.92-11.24-4.66a103.1,103.1,0,0,0,3-9.91L547,234.74l1.88-9.47-11.72-2.33a103,103,0,0,0,1-10.32ZM436.27,301.11a93.32,93.32,0,1,1,93.31-93.32A93.32,93.32,0,0,1,436.27,301.11Z"/><path class="cls-5" d="M336.15,159.07v-8H325.23A100.71,100.71,0,0,0,319.08,120l10.05-4.17-3.06-7.39L316,112.6a101.34,101.34,0,0,0-17.62-26.32l7.94-7.94-5.65-5.66-7.95,7.94A101.47,101.47,0,0,0,266.42,63l4.08-9.87-7.39-3.06L259,60A100.93,100.93,0,0,0,228,53.8V42.88h-8V53.8A101,101,0,0,0,188.89,60l-4.16-10L177.34,53,181.5,63a101.45,101.45,0,0,0-26.45,17.74l-8-8-5.66,5.65,8,8a101.66,101.66,0,0,0-17.49,26.18l-10.16-4.21-3.07,7.39L128.85,120a100.65,100.65,0,0,0-6.15,31.07H111.78v8H122.7a100.93,100.93,0,0,0,6.14,31.06l-10.06,4.16,3.06,7.39,10.07-4.17a101.61,101.61,0,0,0,17.61,26.33l-8.06,8.06,5.65,5.66,8.07-8.07a101.63,101.63,0,0,0,26.32,17.63l-4.25,10.26,7.39,3.06,4.25-10.25A101.3,101.3,0,0,0,220,256.34v10.92h8V256.34A101.23,101.23,0,0,0,259,250.19l4.17,10.08,7.39-3.06-4.17-10.09a101.45,101.45,0,0,0,26.18-17.48l8,8,5.66-5.65-8-8A101.53,101.53,0,0,0,316,197.53l10,4.12,3.06-7.39-10-4.12a100.7,100.7,0,0,0,6.15-31.07ZM224,248.54a93.47,93.47,0,1,1,93.47-93.47A93.47,93.47,0,0,1,224,248.54Z"/><path class="cls-5" d="M401.29,68.76a47,47,0,0,0,.56-7.16,46,46,0,0,0-4.71-20.31L407,35.38l-4.13-6.86L393,34.45a46.28,46.28,0,0,0-22.34-16.51l2.71-11-7.76-1.92L362.91,16a46.11,46.11,0,0,0-27.59,4.17l-5.91-9.8-6.85,4.13,5.92,9.82A46.17,46.17,0,0,0,312,46.65L301.13,44l-1.92,7.76,10.89,2.7a46.22,46.22,0,0,0,4.16,27.52l-9.83,5.92,4.13,6.85,9.84-5.93a46.26,46.26,0,0,0,22.39,16.51l-2.7,10.92,7.76,1.93,2.71-10.93a46.56,46.56,0,0,0,7.13.55A46,46,0,0,0,376,103.07l5.94,9.84,6.85-4.13-5.94-9.84a46.28,46.28,0,0,0,16.56-22.41l11,2.71,1.92-7.76ZM379.43,85.29a33.51,33.51,0,1,1,0-47.39A33.5,33.5,0,0,1,379.43,85.29Z"/><circle class="cls-5" cx="355.73" cy="61.6" r="27.55"/><path class="cls-5" d="M309.89,295.16A23.1,23.1,0,1,0,333,318.25,23.09,23.09,0,0,0,309.89,295.16Zm0,35.28a12.19,12.19,0,1,1,12.19-12.19A12.19,12.19,0,0,1,309.89,330.44Z"/><path class="cls-5" d="M371.71,322.25v-8H359.55a50,50,0,0,0-2.25-11.32l11.23-4.64-3.06-7.4-11.24,4.66a49.32,49.32,0,0,0-6.4-9.59l8.72-8.72-5.66-5.65-8.7,8.7a50.7,50.7,0,0,0-9.57-6.46l4.57-11.05-7.39-3.06-4.56,11a49.6,49.6,0,0,0-11.35-2.31v-12h-8v11.95a50.26,50.26,0,0,0-11.43,2.18l-4.53-10.95-7.39,3.06,4.52,10.92a50.53,50.53,0,0,0-9.82,6.5l-8.47-8.47-5.65,5.65,8.45,8.46a50,50,0,0,0-6.49,9.62l-10.83-4.48-3.06,7.39L262,302.74a50.33,50.33,0,0,0-2.32,11.51H248.07v8h11.58a49.47,49.47,0,0,0,2.26,11.54l-10.67,4.42,3.06,7.39L265,341.18a50.48,50.48,0,0,0,6.55,9.76l-8.37,8.38,5.65,5.66,8.39-8.39a50.47,50.47,0,0,0,9.79,6.5l-4.5,10.85,7.39,3.06,4.51-10.87a50.23,50.23,0,0,0,11.5,2.2v11.74h8V368.29A49.66,49.66,0,0,0,325.32,366l4.53,11,7.39-3.06-4.55-11a50,50,0,0,0,9.54-6.45l8.62,8.62,5.66-5.66-8.64-8.64a50.31,50.31,0,0,0,6.46-9.73l11.09,4.59,3.06-7.39-11.11-4.6a50.05,50.05,0,0,0,2.2-11.34Zm-61.82,35.52a39.52,39.52,0,1,1,39.51-39.52A39.51,39.51,0,0,1,309.89,357.77Z"/></svg>