<?xml version="1.0" encoding="utf-8"?>
<!-- Generator: Adobe Illustrator 23.0.1, SVG Export Plug-In . SVG Version: 6.00 Build 0)  -->
<svg version="1.1" id="Layer_1" xmlns="http://www.w3.org/2000/svg" xmlns:xlink="http://www.w3.org/1999/xlink" x="0px" y="0px"
	 viewBox="0 0 675.9 236.2" style="enable-background:new 0 0 675.9 236.2;" xml:space="preserve">
<style type="text/css">
	.st0{fill:#333333;}
</style>
<path class="st0" d="M395.5,138.1c-48,0-87,39-87,87s39,87,87,87s87-39,87-87l0,0C482.5,177.1,443.5,138.1,395.5,138.1z M409,147.1
	c10.8,0,19.5,8.7,19.5,19.5s-8.7,19.5-19.5,19.5s-19.5-8.7-19.5-19.5l0,0C389.5,155.9,398.2,147.1,409,147.1
	C409,147.1,409,147.1,409,147.1L409,147.1z M337,231.6c-10.8,0-19.5-8.7-19.5-19.5s8.7-19.5,19.5-19.5s19.5,8.7,19.5,19.5
	C356.5,222.9,347.8,231.6,337,231.6L337,231.6z M383,302.1c-10.8,0-19.5-8.7-19.5-19.5s8.7-19.5,19.5-19.5s19.5,8.7,19.5,19.5
	C402.5,293.4,393.8,302.1,383,302.1L383,302.1z M396,258.1c-18.5,0-33.5-15-33.5-33.5s15-33.5,33.5-33.5s33.5,15,33.5,33.5
	C429.5,243.1,414.5,258.1,396,258.1L396,258.1z M454,257.1c-10.8,0-19.5-8.7-19.5-19.5s8.7-19.5,19.5-19.5s19.5,8.7,19.5,19.5
	C473.5,248.4,464.8,257.1,454,257.1L454,257.1z"/>
<circle class="st0" cx="396" cy="224.6" r="15.5"/>
<path class="st0" d="M244.7,110.9c-34-34-89.1-34-123,0s-34,89.1,0,123s89.1,34,123,0c0,0,0,0,0,0
	C278.6,199.9,278.6,144.9,244.7,110.9z M247.9,126.8c7.6,7.6,7.6,20,0,27.6s-20,7.6-27.6,0s-7.6-20,0-27.6c0,0,0,0,0,0
	C227.9,119.2,240.2,119.2,247.9,126.8C247.9,126.8,247.9,126.8,247.9,126.8L247.9,126.8z M137.2,135.7c-7.6-7.6-7.6-20,0-27.6
	s20-7.6,27.6,0c7.6,7.6,7.6,20,0,27.6C157.2,143.3,144.8,143.3,137.2,135.7C137.2,135.7,137.2,135.7,137.2,135.7z M119.9,218
	c-7.6-7.6-7.6-20,0-27.6s20-7.6,27.6,0c7.6,7.6,7.6,20,0,27.6c0,0,0,0,0,0C139.8,225.6,127.5,225.6,119.9,218
	C119.9,218,119.9,218,119.9,218z M160.2,196.1c-13.1-13.1-13.1-34.3,0-47.4c13.1-13.1,34.3-13.1,47.4,0c13.1,13.1,13.1,34.3,0,47.4
	C194.5,209.2,173.3,209.2,160.2,196.1L160.2,196.1z M201.9,236.4c-7.6-7.6-7.6-20,0-27.6s20-7.6,27.6,0c7.6,7.6,7.6,20,0,27.6
	C221.9,244,209.5,244,201.9,236.4L201.9,236.4z"/>
<circle class="st0" cx="183.9" cy="172.4" r="15.5"/>
<circle class="st0" cx="151" cy="121.9" r="15.5"/>
<circle class="st0" cx="234.1" cy="140.6" r="15.5"/>
<circle class="st0" cx="215.7" cy="222.6" r="15.5"/>
<circle class="st0" cx="133.7" cy="204.2" r="15.5"/>
<path class="st0" d="M509.6,230v-9.7h-12.3c-0.2-3.4-0.5-6.8-1-10.2l12.3-2.4l-1.9-9.5l-12.3,2.4c-0.8-3.4-1.8-6.8-3-10.1l11.3-4.7
	l-3.7-8.9l-11.3,4.7c-1.5-3.2-3.2-6.3-5-9.2l10.4-7l-5.4-8l-10.4,7c-2-2.7-4.2-5.4-6.5-7.9l8.9-8.9l-6.8-6.9l-8.9,8.9
	c-2.6-2.3-5.2-4.5-8-6.6l6.8-10.1l-8-5.4l-6.8,10.1c-3-1.8-6-3.4-9.1-4.9l4.6-11.2l-9-3.7l-4.6,11.1c-3.2-1.2-6.6-2.2-9.9-3l2.4-12
	l-9.5-1.9l-2.4,12c-3.4-0.5-6.9-0.8-10.3-1V111h-9.7v12.3c-3.4,0.2-6.8,0.5-10.1,1l-2.5-12.3l-9.5,1.9l2.5,12.3
	c-3.4,0.8-6.8,1.9-10.2,3.1l-4.7-11.3l-8.9,3.7l4.7,11.3c-3.1,1.5-6.2,3.1-9.1,4.9l-6.9-10.4l-8,5.4l6.9,10.3
	c-2.8,2.1-5.6,4.3-8.2,6.7l-9-9l-6.8,6.8l9,9c-2.3,2.5-4.4,5.2-6.5,7.9l-10.4-7l-5.4,8l10.4,6.9c-1.8,2.9-3.4,6-4.9,9.1l-11.5-4.6
	l-3.7,8.9l11.5,4.7c-1.2,3.3-2.2,6.6-3,9.9l-12.4-2.5l-1.9,9.5l12.4,2.4c-0.5,3.4-0.8,6.9-1,10.3h-12.3v9.7h12.3
	c0.2,3.5,0.5,7,1,10.4l-11.8,2.4l1.9,9.5l11.8-2.4c0.8,3.3,1.8,6.6,3,9.8l-11.4,4.7l3.7,8.9l11.4-4.7c1.5,3.1,3.1,6.1,4.8,9l-10,6.7
	l5.4,8l10-6.7c2.1,2.8,4.3,5.5,6.6,8.1l-9,9l6.8,6.8l9-9c2.6,2.3,5.2,4.5,8,6.6l-6.9,10.3l8,5.4l6.9-10.3c3,1.8,6,3.4,9.1,4.9
	l-4.8,11.6l8.9,3.7l4.8-11.5c3.3,1.2,6.6,2.2,9.9,3l-2.4,12.1l9.5,1.9l2.4-12.1c3.4,0.5,6.9,0.8,10.3,1v12.3h9.7V327
	c3.5-0.2,7.1-0.5,10.5-1l2.3,11.8l9.5-1.9l-2.3-11.8c3.3-0.8,6.5-1.8,9.7-2.9l4.7,11.4l8.9-3.7l-4.7-11.4c3.1-1.5,6.2-3.1,9.2-4.9
	l6.8,10.1l8-5.4l-6.8-10.1c2.7-2,5.3-4.1,7.8-6.4l9,9l6.8-6.8l-9-9c2.4-2.6,4.6-5.3,6.7-8.1l10,6.7l5.4-8l-10-6.7
	c1.8-3,3.4-6,4.9-9.2l11.2,4.6l3.7-8.9l-11.2-4.7c1.2-3.2,2.2-6.6,3-9.9l11.7,2.3l1.9-9.5l-11.7-2.3c0.5-3.4,0.8-6.9,1-10.3
	L509.6,230z M395.5,318.5c-51.5,0-93.3-41.8-93.3-93.3c0-51.5,41.8-93.3,93.3-93.3s93.3,41.8,93.3,93.3S447,318.5,395.5,318.5
	C395.5,318.5,395.5,318.5,395.5,318.5z"/>
<path class="st0" d="M295.4,176.4v-8h-10.9c-0.4-10.6-2.5-21.1-6.1-31.1l10-4.2l-3.1-7.4l-10.1,4.2c-4.5-9.6-10.4-18.5-17.6-26.3
	l7.9-7.9l-5.7-5.7l-7.9,7.9c-7.8-7.2-16.7-13.2-26.3-17.6l4.1-9.9l-7.4-3.1l-4.1,9.9c-10-3.7-20.5-5.7-31.1-6.1V60.2h-8v10.9
	c-10.6,0.4-21.1,2.5-31.1,6.2l-4.2-10l-7.4,3.1l4.2,10c-9.7,4.5-18.6,10.5-26.5,17.7l-8-8l-5.7,5.7l8,8c-7.2,7.8-13,16.6-17.5,26.2
	l-10.2-4.2l-3.1,7.4l10.1,4.2c-3.7,10-5.7,20.5-6.2,31.1H71v8h10.9c0.4,10.6,2.5,21.1,6.1,31.1l-10,4.2l3,7.4l10.1-4.2
	c4.5,9.6,10.4,18.5,17.6,26.3l-8.1,8.1l5.7,5.7l8.1-8.1c7.8,7.2,16.7,13.2,26.3,17.6l-4.2,10.3l7.4,3.1l4.2-10.3
	c10,3.7,20.5,5.7,31.1,6.1v10.9h8v-10.9c10.6-0.4,21.1-2.5,31.1-6.1l4.2,10.1l7.4-3.1l-4.2-10.1c9.6-4.4,18.4-10.3,26.2-17.5l8,8
	l5.6-5.7l-8-8c7.3-7.8,13.3-16.8,17.7-26.5l10,4.1l3.1-7.4l-10-4.1c3.7-10,5.7-20.5,6.1-31.1L295.4,176.4z M183.2,265.9
	c-51.6,0-93.5-41.8-93.5-93.5s41.8-93.5,93.5-93.5s93.5,41.8,93.5,93.5c0,0,0,0,0,0C276.6,224.1,234.8,265.9,183.2,265.9
	C183.2,265.9,183.2,265.9,183.2,265.9z"/>
<path class="st0" d="M360.5,86.1c0.4-2.4,0.5-4.7,0.5-7.1c0-7-1.6-14-4.7-20.3l9.8-5.9l-4.1-6.9l-9.8,5.9
	c-5.6-7.7-13.4-13.4-22.3-16.5l2.7-11l-7.8-1.9l-2.7,11c-2.4-0.4-4.8-0.6-7.2-0.6c-7.1,0-14,1.6-20.4,4.7l-5.9-9.8l-6.9,4.1l5.9,9.8
	c-7.6,5.6-13.4,13.4-16.4,22.3l-10.9-2.7l-1.9,7.8l10.9,2.7c-1.5,9.4,0,19,4.1,27.5l-9.8,5.9l4.1,6.8l9.8-5.9
	c5.6,7.7,13.4,13.4,22.4,16.5l-2.7,10.9l7.8,1.9l2.7-10.9c2.4,0.4,4.7,0.6,7.1,0.6c7,0,14-1.6,20.3-4.7l5.9,9.8l6.9-4.1l-5.9-9.8
	c7.7-5.6,13.5-13.4,16.6-22.4l11,2.7l1.9-7.8L360.5,86.1z M338.6,102.7c-13.1,13.1-34.3,13.1-47.4,0c-13.1-13.1-13.1-34.3,0-47.4
	s34.3-13.1,47.4,0c0,0,0,0,0,0C351.7,68.3,351.7,89.6,338.6,102.7z"/>
<circle class="st0" cx="314.9" cy="79" r="27.5"/>
<path class="st0" d="M565.3,168.4c-12.8,0-23.1,10.3-23.1,23.1s10.3,23.1,23.1,23.1c12.8,0,23.1-10.3,23.1-23.1v0
	C588.4,178.7,578,168.4,565.3,168.4z M565.3,203.6c-6.7,0-12.2-5.5-12.2-12.2s5.5-12.2,12.2-12.2c6.7,0,12.2,5.5,12.2,12.2
	S572,203.6,565.3,203.6L565.3,203.6z"/>
<path class="st0" d="M627.1,195.5v-8H615c-0.3-3.8-1.1-7.6-2.2-11.3l11.2-4.6l-3.1-7.4l-11.2,4.6c-1.8-3.4-3.9-6.7-6.4-9.6l8.7-8.7
	l-5.7-5.7l-8.7,8.7c-2.9-2.5-6.2-4.7-9.6-6.5l4.6-11l-7.4-3.1l-4.6,11c-3.7-1.2-7.5-2-11.3-2.3v-12h-8v12c-3.9,0.3-7.7,1-11.4,2.2
	l-4.5-10.9l-7.4,3.1l4.5,10.9c-3.5,1.8-6.8,4-9.8,6.5l-8.5-8.5l-5.7,5.7l8.5,8.4c-2.5,2.9-4.7,6.2-6.5,9.6l-10.8-4.5l-3.1,7.4
	l10.8,4.5c-1.2,3.7-2,7.6-2.3,11.5h-11.6v8H515c0.3,3.9,1.1,7.8,2.3,11.5l-10.7,4.4l3.1,7.4l10.7-4.4c1.8,3.5,4,6.8,6.5,9.8
	l-8.4,8.4l5.7,5.6l8.4-8.4c3,2.5,6.3,4.7,9.8,6.5l-4.5,10.9l7.4,3.1l4.5-10.9c3.7,1.2,7.6,1.9,11.5,2.2v11.7h8v-11.8
	c3.9-0.3,7.7-1.1,11.4-2.3l4.5,10.9l7.4-3.1l-4.5-11c3.4-1.8,6.6-3.9,9.5-6.5l8.6,8.6l5.7-5.6l-8.6-8.6c2.5-3,4.7-6.3,6.5-9.7
	l11.1,4.6l3.1-7.4l-11.1-4.6c1.2-3.7,1.9-7.5,2.2-11.3H627.1z M565.3,231c-21.8,0-39.5-17.7-39.5-39.5s17.7-39.5,39.5-39.5
	c21.8,0,39.5,17.7,39.5,39.5S587.1,231,565.3,231L565.3,231z"/>
<path class="st0" d="M215.8,48.6l-10-2.7l-7.3,7.3l2.7,10l10,2.7l7.3-7.3L215.8,48.6z M208.4,60.3c-2.4,0-4.3-1.9-4.3-4.3
	s1.9-4.3,4.3-4.3c2.4,0,4.3,1.9,4.3,4.3c0,0,0,0,0,0C212.8,58.3,210.8,60.3,208.4,60.3C208.4,60.3,208.4,60.3,208.4,60.3L208.4,60.3
	z"/>
<path class="st0" d="M67,201.3l-14.8-4l-10.8,10.9l4,14.8l14.8,4L71,216.1L67,201.3z M56.2,218.5c-3.5,0-6.4-2.9-6.4-6.4
	c0-3.5,2.9-6.4,6.4-6.4s6.4,2.9,6.4,6.4S59.7,218.5,56.2,218.5L56.2,218.5z"/>
<path class="st0" d="M232.2,49.6l6.3,1.8c0.7-3.5-1.2-6.9-4.5-8.2L232.2,49.6z"/>
<polygon class="st0" points="238.5,51.9 238.5,51.9 238.5,51.9 "/>
<path class="st0" d="M231,50.3l-6.3-1.8c-0.7,3.5,1.2,6.9,4.5,8.2L231,50.3z"/>
<path class="st0" d="M231.3,49.3l1.8-6.3c-3.5-0.7-7,1.2-8.2,4.5L231.3,49.3z"/>
<path class="st0" d="M232,50.6l-1.8,6.3c3.5,0.7,6.9-1.2,8.2-4.5L232,50.6z"/>
<path class="st0" d="M501.5,157.9l4.7-1.7c-1.1-2.4-3.8-3.7-6.4-3L501.5,157.9z"/>
<path class="st0" d="M501.1,158.9l-4.7,1.7c1.1,2.5,3.8,3.7,6.4,3L501.1,158.9z"/>
<path class="st0" d="M500.8,158.2l-1.7-4.7c-2.4,1.1-3.7,3.8-3,6.4L500.8,158.2z"/>
<path class="st0" d="M501.8,158.6l1.7,4.7c2.5-1.1,3.7-3.8,3-6.4L501.8,158.6z"/>
</svg>
